{"title":"Unforgettable Music Video - Natalie Cole &amp; Nat King Cole","uid":4698873,"size":66655896,"categoryP":"video","categoryS":"music_videos","magnet":"?xt=urn:btih:b51c5c7b7e51899482569d1944fbcbbc1d27a066&amp;dn=Unforgettable+Music+Video+-+Natalie+Cole+%26+Nat+King+Cole&amp;tr=udp%3A%2F%2Ftracker.openbittorrent.com%3A80&amp;tr=udp%3A%2F%2Fopen.demonii.com%3A1337&amp;tr=udp%3A%2F%2Ftracker.coppersurfer.tk%3A6969&amp;tr=udp%3A%2F%2Fexodus.desync.com%3A6969","seeders":2,"leechers":0,"uploader":"desikun","files":-1,"time":1233652320,"description":"One of the most beautiful songs I've ever heard.\n\nCredits to the original ripper.\n\nScreenshots: &lt;a href=&quot;\nhttp://bayimg.com/banNfAAbf&quot; rel=&quot;nofollow&quot; target=&quot;_NEW&quot;&gt;\nhttp://bayimg.com/banNfAAbf&lt;/a&gt;\n\nGeneral\nComplete name                    : Natalie_Cole_-_Unforgettable_DVDrip_UDS.avi\nFormat                           : AVI\nFormat/Info                      : Audio Video Interleave\nFile size                        : 63.6 MiB\nDuration                         : 3mn 26s\nOverall bit rate                 : 2 579 Kbps\nWriting application              : MEncoder 1.0rc1-3.4.5\nWriting library                  : MPlayer\n\nVideo\nFormat                           : MPEG-4 Visual\nFormat profile                   : Simple@L1\nFormat settings, BVOP            : No\nFormat settings, QPel            : No\nFormat settings, GMC             : No warppoints\nFormat settings, Matrix          : Default\nCodec ID                         : divx\nCodec ID/Info                    : Mainly used by Google\nCodec ID/Hint                    : DivX\nDuration                         : 3mn 26s\nBit rate                         : 2 438 Kbps\nWidth                            : 640 pixels\nHeight                           : 480 pixels\nDisplay aspect ratio             : 4/3\nFrame rate                       : 29.970 fps\nResolution                       : 24 bits\nColorimetry                      : 4:2:0\nScan type                        : Progressive\nBits/(Pixel*Frame)               : 0.265\nStream size                      : 60.1 MiB (95%)\nWriting library                  : Lavc51.21.0\n\nAudio\nFormat                           : MPEG Audio\nFormat version                   : Version 1\nFormat profile                   : Layer 3\nCodec ID                         : 55\nCodec ID/Hint                    : MP3\nDuration                         : 3mn 26s\nBit rate mode                    : Constant\nBit rate                         : 128 Kbps\nChannel(s)                       : 2 channels\nSampling rate                    : 44.1 KHz\nResolution                       : 16 bits\nStream size                      : 3.16 MiB (5%)\nAlignment                        : Aligned on interleaves\nInterleave, duration             : 26 ms (0.78 video frame)\nInterleave, preload duration     : 522 ms\nWriting library                  : LAME3.97\n\nEnjoy!","torrent":{"xt":"urn:btih:b51c5c7b7e51899482569d1944fbcbbc1d27a066","amp;dn":"Unforgettable+Music+Video+-+Natalie+Cole+%26+Nat+King+Cole","amp;tr":["udp%3A%2F%2Ftracker.openbittorrent.com%3A80","udp%3A%2F%2Fopen.demonii.com%3A1337","udp%3A%2F%2Ftracker.coppersurfer.tk%3A6969","udp%3A%2F%2Fexodus.desync.com%3A6969"],"infoHash":"b51c5c7b7e51899482569d1944fbcbbc1d27a066","infoHashBuffer":{"type":"Buffer","data":[181,28,92,123,126,81,137,148,130,86,157,25,68,251,203,188,29,39,160,102]},"announce":[],"urlList":[]}}